<svg width='24' height='24' viewBox='0 0 24 24' xmlns='http://www.w3.org/2000/svg' xmlns:xlink='http://www.w3.org/1999/xlink'><rect width='24' height='24' stroke='none' fill='#000000' opacity='0'/>

<g transform="matrix(0.42 0 0 0.42 12 12)" >
<g style="" >
<g transform="matrix(1 0 0 1 0 0)" >
<rect style="stroke: none; stroke-width: 1; stroke-dasharray: none; stroke-linecap: butt; stroke-dashoffset: 0; stroke-linejoin: miter; stroke-miterlimit: 4; fill: rgb(136,14,79); fill-rule: nonzero; opacity: 1;" x="-24" y="-17" rx="0" ry="0" width="48" height="34" />
</g>
<g transform="matrix(1 0 0 1 0 -0.07)" >
<path style="stroke: none; stroke-width: 1; stroke-dasharray: none; stroke-linecap: butt; stroke-dashoffset: 0; stroke-linejoin: miter; stroke-miterlimit: 4; fill: rgb(144,202,249); fill-rule: nonzero; opacity: 1;" transform=" translate(-24, -23.93)" d="M 24 36.809 C 25.171 35.141 28.839 33.69 30.736 32.818999999999996 C 33.066 31.749999999999996 34.287 31.229999999999997 34.908 29.115999999999996 C 35.191 28.153999999999996 34.469 25.165999999999997 34.031 23.564999999999998 C 33.504999999999995 21.642999999999997 33.18 18.936 33.295 18.072999999999997 C 33.378 17.450999999999997 34.414 15.440999999999997 34.414 15.440999999999997 L 31.103 11.857999999999997 C 27.87 13.475 25.99 12.291 24 11.047 C 22.01 12.291 20.13 13.474 16.896 11.858 L 13.585 15.441 C 13.585 15.441 14.621 17.451 14.704 18.073 C 14.819 18.936 14.494 21.643 13.968 23.565 C 13.53 25.165000000000003 12.808 28.154000000000003 13.091 29.116 C 13.713 31.23 14.933 31.75 17.262999999999998 32.819 C 19.161 33.69 22.829 35.14 24 36.809 z" stroke-linecap="round" />
</g>
<g transform="matrix(1 0 0 1 0 6.99)" >
<path style="stroke: none; stroke-width: 1; stroke-dasharray: none; stroke-linecap: butt; stroke-dashoffset: 0; stroke-linejoin: miter; stroke-miterlimit: 4; fill: rgb(40,53,147); fill-rule: nonzero; opacity: 1;" transform=" translate(-24, -30.99)" d="M 34.908 29.116 C 34.286 31.23 33.065 31.75 30.736 32.819 C 28.84 33.689 25.171 35.141000000000005 24 36.808 C 22.829 35.14 19.16 33.689 17.264 32.819 C 14.934999999999999 31.750000000000004 13.713999999999999 31.230000000000004 13.091999999999999 29.116000000000003 C 12.889 28.426000000000002 13.203 26.696000000000005 13.557999999999998 25.181000000000004 L 34.442 25.181000000000004 C 34.798 26.696 35.111 28.426 34.908 29.116 z" stroke-linecap="round" />
</g>
<g transform="matrix(1 0 0 1 0 -0.07)" >
<path style="stroke: none; stroke-width: 1; stroke-dasharray: none; stroke-linecap: butt; stroke-dashoffset: 0; stroke-linejoin: miter; stroke-miterlimit: 4; fill: rgb(255,179,0); fill-rule: nonzero; opacity: 1;" transform=" translate(-24, -23.93)" d="M 24 36.995 C 23.939 36.995 23.882 36.964999999999996 23.847 36.916 C 22.864 35.51499999999999 19.962000000000003 34.226 18.042 33.373 C 17.731 33.235 17.443 33.107 17.186 32.989 L 17.039 32.921 C 14.786000000000001 31.887999999999998 13.546000000000001 31.319 12.913 29.168 C 12.6 28.102 13.421 24.86 13.789 23.516 C 14.315 21.592999999999996 14.631 18.929 14.52 18.098 C 14.456 17.613999999999997 13.703999999999999 16.078 13.42 15.527 C 13.384 15.456999999999999 13.396 15.373 13.449 15.315 L 16.759999999999998 11.732 C 16.816 11.671 16.906 11.655 16.979999999999997 11.692 C 20.112 13.258000000000001 21.945999999999998 12.112 23.887999999999998 10.898 L 23.901999999999997 10.889 C 23.961999999999996 10.850999999999999 24.038999999999998 10.850999999999999 24.099999999999998 10.889 L 24.113999999999997 10.898 C 26.055999999999997 12.112 27.889999999999997 13.258 31.022 11.692 C 31.096999999999998 11.655 31.186 11.671 31.241999999999997 11.732 L 34.553 15.315 C 34.605999999999995 15.373 34.617999999999995 15.456999999999999 34.582 15.527 C 34.298 16.078 33.547000000000004 17.615 33.482 18.098 C 33.371 18.93 33.687 21.593 34.213 23.516 C 34.581 24.86 35.402 28.101999999999997 35.089 29.168 C 34.455999999999996 31.317999999999998 33.216 31.887999999999998 30.962999999999997 32.921 L 30.816 32.989 C 30.56 33.107 30.270999999999997 33.235 29.959999999999997 33.373 C 28.04 34.226 25.137999999999998 35.515 24.154999999999998 36.916 C 24.118 36.966 24.061 36.995 24 36.995 z M 13.811 15.472 C 14.036 15.917 14.815 17.483999999999998 14.89 18.048 C 15.005 18.912999999999997 14.686 21.651999999999997 14.149000000000001 23.613999999999997 C 13.571000000000002 25.726 13.037 28.266999999999996 13.271 29.062999999999995 C 13.855 31.049999999999997 14.971 31.561999999999994 17.194000000000003 32.581999999999994 L 17.342000000000002 32.64999999999999 C 17.597 32.76699999999999 17.885 32.89499999999999 18.194000000000003 33.03199999999999 C 20.175000000000004 33.91199999999999 22.854000000000003 35.10299999999999 24.000000000000004 36.50099999999999 C 25.146000000000004 35.10199999999999 27.826000000000004 33.91199999999999 29.806000000000004 33.03199999999999 C 30.115000000000006 32.89499999999999 30.403000000000006 32.76699999999999 30.658000000000005 32.64999999999999 L 30.806000000000004 32.581999999999994 C 33.029 31.561999999999994 34.145 31.050999999999995 34.729000000000006 29.062999999999995 C 34.96300000000001 28.266999999999996 34.42900000000001 25.725999999999996 33.851000000000006 23.613999999999997 C 33.31400000000001 21.651999999999997 32.995000000000005 18.912999999999997 33.11000000000001 18.048 C 33.18500000000001 17.483999999999998 33.96300000000001 15.916999999999998 34.18900000000001 15.471999999999998 L 31.061000000000007 12.086999999999998 C 27.864000000000008 13.631999999999998 25.976000000000006 12.501999999999997 24.000000000000007 11.266999999999998 C 22.024000000000008 12.500999999999998 20.136000000000006 13.631999999999998 16.939000000000007 12.086999999999998 L 13.811 15.472 z" stroke-linecap="round" />
</g>
<g transform="matrix(1 0 0 1 5.38 -5.53)" >
<circle style="stroke: none; stroke-width: 1; stroke-dasharray: none; stroke-linecap: butt; stroke-dashoffset: 0; stroke-linejoin: miter; stroke-miterlimit: 4; fill: rgb(255,179,0); fill-rule: nonzero; opacity: 1;" cx="0" cy="0" r="2.611" />
</g>
<g transform="matrix(1 0 0 1 0.84 5.43)" >
<path style="stroke: none; stroke-width: 1; stroke-dasharray: none; stroke-linecap: butt; stroke-dashoffset: 0; stroke-linejoin: miter; stroke-miterlimit: 4; fill: rgb(129,199,132); fill-rule: nonzero; opacity: 1;" transform=" translate(-24.84, -29.43)" d="M 30.249 31.772 C 30.249 31.848 30.247 31.924999999999997 30.243 32 L 19.436 32 C 19.432 31.925 19.43 31.848 19.43 31.772 C 19.43 29.058999999999997 21.852 26.86 24.839 26.86 C 27.825999999999997 26.86 30.249 29.059 30.249 31.772 z" stroke-linecap="round" />
</g>
<g transform="matrix(1 0 0 1 2.02 3.54)" >
<polygon style="stroke: none; stroke-width: 1; stroke-dasharray: none; stroke-linecap: butt; stroke-dashoffset: 0; stroke-linejoin: miter; stroke-miterlimit: 4; fill: rgb(255,179,0); fill-rule: nonzero; opacity: 1;" points="-1.37,-3.48 -1.37,3.48 -0.87,3.48 -0.87,-2.98 -0.25,-2.98 -0.25,3.48 0.25,3.48 0.25,-2.98 0.87,-2.98 0.87,3.48 1.37,3.48 1.37,-3.48 " />
</g>
<g transform="matrix(1 0 0 1 -1.76 2.24)" >
<path style="stroke: none; stroke-width: 1; stroke-dasharray: none; stroke-linecap: butt; stroke-dashoffset: 0; stroke-linejoin: miter; stroke-miterlimit: 4; fill: rgb(109,76,65); fill-rule: nonzero; opacity: 1;" transform=" translate(-22.24, -26.24)" d="M 20.549 20.829 L 21.793 20.829 C 21.793 20.829 21.793 21.699 21.669 22.446 C 21.545 23.192 21.42 24.436 21.42 24.809 C 21.42 25.182000000000002 21.544 26.674 21.544 26.674 C 21.544 26.674 22.29 28.538999999999998 22.539 29.037 C 22.788 29.534 24.031000000000002 31.648 24.031000000000002 31.648 L 23.285000000000004 31.648 C 23.285000000000004 31.648 21.047000000000004 28.042 20.549000000000003 26.674 C 20.425 26.549 20.425 23.938 20.549 20.829 z" stroke-linecap="round" />
</g>
<g transform="matrix(1 0 0 1 -2.47 -6.08)" >
<path style="stroke: none; stroke-width: 1; stroke-dasharray: none; stroke-linecap: butt; stroke-dashoffset: 0; stroke-linejoin: miter; stroke-miterlimit: 4; fill: rgb(67,160,71); fill-rule: nonzero; opacity: 1;" transform=" translate(-21.53, -17.92)" d="M 24.464 20.906 C 24.511999999999997 20.95 24.47 21.028 24.407 21.012 C 24.001 20.905 23.219 20.705000000000002 23.036 20.705000000000002 C 22.787000000000003 20.705000000000002 21.792 20.954 21.792 20.954 L 20.548000000000002 20.830000000000002 L 20.299000000000003 20.581000000000003 L 19.677000000000003 20.581000000000003 L 18.433000000000003 20.954000000000004 L 18.433000000000003 20.457000000000004 L 19.303000000000004 19.835000000000004 L 20.547000000000004 19.835000000000004 L 19.677000000000003 19.213000000000005 L 18.682000000000002 19.089000000000006 C 18.682000000000002 19.089000000000006 17.812 19.462000000000007 17.563000000000002 19.711000000000006 C 17.314000000000004 19.960000000000004 16.568 20.581000000000007 16.568 20.581000000000007 L 16.941000000000003 19.462000000000007 C 16.941000000000003 19.462000000000007 17.936000000000003 18.592000000000006 18.185000000000002 18.467000000000006 C 18.434 18.343000000000007 19.304000000000002 18.094000000000005 19.304000000000002 18.094000000000005 L 20.548000000000002 18.094000000000005 C 20.548000000000002 18.094000000000005 20.424000000000003 17.845000000000006 20.299000000000003 17.845000000000006 C 20.174000000000003 17.845000000000006 18.682000000000002 17.721000000000007 18.682000000000002 17.721000000000007 C 18.682000000000002 17.721000000000007 18.185000000000002 17.970000000000006 17.936000000000003 18.09400000000001 C 17.761000000000003 18.181000000000008 17.281000000000002 18.51300000000001 17.010000000000005 18.704000000000008 C 16.966000000000005 18.735000000000007 16.911000000000005 18.684000000000008 16.939000000000004 18.63800000000001 L 17.564000000000004 17.59700000000001 L 18.559000000000005 16.97500000000001 C 18.559000000000005 16.97500000000001 19.554000000000006 16.72600000000001 19.803000000000004 16.72600000000001 C 20.052000000000003 16.72600000000001 20.798000000000005 16.72600000000001 20.798000000000005 16.72600000000001 L 20.301000000000005 16.47700000000001 L 19.306000000000004 16.47700000000001 L 18.311000000000003 16.97400000000001 L 18.808000000000003 16.228000000000012 L 19.803000000000004 15.855000000000013 L 21.109000000000005 15.907000000000012 C 21.109000000000005 15.907000000000012 21.088000000000005 15.612000000000013 20.917000000000005 15.524000000000012 C 20.746000000000006 15.436000000000012 20.052000000000007 15.135000000000012 20.052000000000007 15.135000000000012 C 20.052000000000007 15.135000000000012 20.803000000000008 14.969000000000012 20.912000000000006 15.000000000000012 C 21.021000000000004 15.031000000000013 21.461000000000006 15.181000000000012 21.819000000000006 15.539000000000012 C 22.011000000000006 15.394000000000013 22.601000000000006 14.834000000000012 22.601000000000006 14.834000000000012 L 23.674000000000007 14.855000000000013 L 23.700000000000006 14.943000000000012 C 23.700000000000006 14.943000000000012 22.591000000000008 15.404000000000012 22.420000000000005 15.720000000000011 C 22.928000000000004 15.725000000000012 23.569000000000006 15.723000000000011 23.569000000000006 15.723000000000011 L 24.358000000000008 16.438000000000013 L 23.216000000000008 16.182000000000013 L 22.41500000000001 16.310000000000013 L 22.16600000000001 16.784000000000013 L 23.70900000000001 16.768000000000015 C 23.70900000000001 16.768000000000015 24.39900000000001 16.964000000000016 24.59600000000001 17.093000000000014 C 24.73300000000001 17.183000000000014 25.42800000000001 17.932000000000013 25.83900000000001 18.380000000000013 C 25.90400000000001 18.451000000000015 25.82300000000001 18.55900000000001 25.736000000000008 18.517000000000014 L 24.492000000000008 17.912000000000013 C 24.492000000000008 17.912000000000013 23.948000000000008 17.674000000000014 22.96400000000001 17.596000000000014 L 22.669000000000008 17.808000000000014 C 22.669000000000008 17.808000000000014 23.799000000000007 17.953000000000014 23.959000000000007 18.015000000000015 C 24.120000000000008 18.077000000000016 24.87600000000001 18.378000000000014 24.943000000000005 18.409000000000013 C 25.005000000000006 18.438000000000013 25.962000000000003 19.317000000000014 26.473000000000006 20.146000000000015 C 26.507000000000005 20.201000000000015 26.445000000000007 20.264000000000014 26.389000000000006 20.233000000000015 C 25.944000000000006 19.983000000000015 24.979000000000006 19.430000000000014 24.776000000000007 19.383000000000013 C 24.532000000000007 19.326000000000015 23.755000000000006 19.139000000000014 23.646000000000008 19.145000000000014 C 23.537000000000006 19.150000000000013 22.579000000000008 19.161000000000012 22.579000000000008 19.161000000000012 L 21.921000000000006 19.52400000000001 L 21.947000000000006 19.726000000000013 C 21.947000000000006 19.726000000000013 23.372000000000007 19.944000000000013 23.439000000000007 19.990000000000013 C 23.49 20.024 24.136 20.608 24.464 20.906 z" stroke-linecap="round" />
</g>
</g>
</g>
</svg>